<svg width="280" height="444" viewBox="53.5757 6.26996 225.705 437.73" fill="none" xmlns="http://www.w3.org/2000/svg">
    <rect x="53.5757" y="6.26996" width="225.705" height="437.73" fill="#DFF1FC"/>
    <g opacity="0.6">
        <path d="M75.3599 403.588L89.703 421.211L112.109 417.608L120.18 396.378L105.837 378.755L83.4286 382.379L75.3599 403.588Z" fill="#F5815A"/>
        <path d="M88.207 388.254L82.8424 402.353L87.6113 408.202L90.2877 401.15L99.8768 412.938L107.302 411.733L92.9587 394.11L95.6524 387.052L88.207 388.254Z" fill="white"/>
        <path d="M100.465 392.915L110.01 404.66L112.706 397.581L103.144 385.842L100.465 392.915Z" fill="white"/>
        <path opacity="0.7" d="M112.247 377.057L126.284 394.342L117.696 416.926" stroke="#F5815A" stroke-miterlimit="10"/>
        <path opacity="0.5" d="M123.784 383.097L132.413 393.729L127.127 407.614" stroke="#F5815A" stroke-miterlimit="10"/>
        <path opacity="0.2" d="M133.165 385.711L138.916 392.777L135.392 402.024" stroke="#F5815A" stroke-miterlimit="10"/>
        <path d="M236.653 94.2372L236.575 94.2012C235.772 81.9758 225.22 72.7099 213.005 73.5135C206.437 73.9437 200.39 77.2811 196.518 82.6293C188.582 80.7453 180.622 85.6311 178.74 93.5727C177.139 100.323 180.434 107.271 186.664 110.284L188.03 110.954L215.289 124.356L216.654 125.026C225.767 129.625 236.867 125.961 241.452 116.86C245.348 109.127 243.353 99.726 236.673 94.2463L236.663 94.2466L236.653 94.2372ZM214.72 92.961L207.075 108.539L203.845 103.733L208.956 93.309L203.213 93.6949L205.747 88.5412L217.261 87.7589L220.462 92.5558L214.719 92.9417L214.71 92.942L214.72 92.961ZM218.619 107.785L212.856 108.161L217.949 97.7666L223.712 97.3897L218.619 107.785Z" fill="#12B0E0"/>
        <path opacity="0.7" d="M193.086 78.1466C193.086 78.1466 204.858 62.7607 225.741 69.0014C238.229 72.7375 242.774 87.0126 242.774 87.0126" stroke="#12B0E0" stroke-linecap="round" stroke-linejoin="round"/>
        <path opacity="0.3" d="M189.995 71.5772C189.995 71.5772 202.111 55.1617 222.651 62.432" stroke="#12B0E0" stroke-linecap="round" stroke-linejoin="round"/>
        <path d="M219.538 203.767L187.156 219.551C185.488 220.364 184.795 222.377 185.608 224.046L195.244 243.833C196.057 245.503 198.068 246.197 199.736 245.384L232.117 229.6C233.785 228.787 234.479 226.774 233.666 225.105L224.03 205.318C223.217 203.648 221.206 202.954 219.538 203.767Z" fill="#12B0E0"/>
        <path d="M185.585 218.989L220.552 201.942C221.368 201.542 222.361 201.882 222.762 202.705L224.104 205.459L185.68 224.188L184.573 221.919C184.044 220.832 184.493 219.519 185.585 218.989Z" fill="white"/>
        <path d="M187.741 221.812C188.368 221.678 188.768 221.061 188.634 220.433C188.5 219.806 187.883 219.406 187.256 219.54C186.629 219.674 186.23 220.291 186.364 220.918C186.498 221.545 187.115 221.945 187.741 221.812Z" fill="#F5815A"/>
        <path d="M191.19 220.149C191.816 220.015 192.216 219.398 192.082 218.77C191.948 218.143 191.331 217.743 190.704 217.877C190.078 218.011 189.678 218.628 189.812 219.255C189.946 219.883 190.563 220.283 191.19 220.149Z" fill="#8DC375"/>
        <path d="M194.737 218.423C195.363 218.289 195.763 217.672 195.629 217.045C195.495 216.418 194.878 216.018 194.251 216.151C193.625 216.285 193.225 216.902 193.359 217.53C193.493 218.157 194.11 218.557 194.737 218.423Z" fill="#63BCB8"/>
        <path d="M211.122 233.577L207.509 235.275L205.708 231.704L206.446 229.575L208.247 233.146L211.859 231.448L211.122 233.577Z" fill="white"/>
        <path d="M204.313 221.337L216.818 229.302L216.247 230.962L203.742 222.997L204.313 221.337Z" fill="white"/>
        <path d="M209.292 221.289L210.033 219.147L213.646 217.449L215.447 221.02L214.706 223.161L212.909 219.584L209.295 221.3L209.292 221.289Z" fill="white"/>
        <path d="M169.08 18.2067C148.699 15.915 126.407 22.8118 114.532 39.8743C85.3919 77.176 71.3971 127.58 82.7334 173.997C84.9602 182.65 87.3048 191.311 90.8383 200.083L92.3596 200.212C100.551 186.69 105.644 172.454 112.083 158.518C122.471 135.949 134.343 114.297 148.477 94.1252C153.629 86.4332 159.543 79.2772 165.061 71.8412C174.908 57.6633 176.016 38.4962 171.116 21.8853C170.945 21.2022 170.497 19.8269 170.252 19.1588L169.066 18.2081L169.08 18.2067Z" fill="#12B0E0"/>
        <path d="M92.6383 240.014C88.1141 245.654 79.8704 246.556 74.2255 242.028C68.5806 237.5 67.6721 229.257 72.1964 223.617C76.7206 217.977 84.9643 217.075 90.6091 221.603C96.254 226.131 97.1625 234.374 92.6383 240.014Z" fill="#12B0E0"/>
        <path d="M231.341 379.651L241.623 388.227C242.431 388.899 242.537 390.111 241.87 390.93L233.294 401.212C232.622 402.02 231.41 402.126 230.592 401.459L220.309 392.883C219.501 392.211 219.395 390.999 220.062 390.18L228.639 379.898C229.31 379.09 230.522 378.984 231.341 379.651ZM227.914 394.211L228.846 394.167C232.16 394.025 234.362 393.943 235.529 392.556C236.477 391.419 236.318 389.803 235.192 388.85C234.554 388.314 233.684 388.114 232.901 388.249C232.892 387.449 232.529 386.638 231.903 386.097C230.765 385.149 229.149 385.308 228.196 386.434C227.034 387.832 227.34 389.997 227.805 393.282L227.925 394.206L227.914 394.211Z" fill="#8DC375"/>
        <path d="M156.618 355.762C131.267 346.64 109.609 330.612 98.6977 305.302C96.3761 298.994 92.313 292.864 95.233 286.016C96.5093 283.034 98.2632 280.545 100.95 277.923L103.818 277.058C112.147 278.407 117.875 282.857 119.4 290.858C124.687 306.456 132.816 320.651 143.444 333.54C148.635 339.713 153.975 346.222 158.513 353.422L156.633 355.743L156.599 355.747L156.618 355.762Z" fill="#8DC375"/>
        <path d="M164.119 364.086C164.654 367.864 168.153 370.492 171.934 369.956C175.715 369.42 178.345 365.923 177.81 362.146C177.274 358.368 173.775 355.74 169.995 356.276C166.214 356.812 163.583 360.309 164.119 364.086Z" fill="#8DC375"/>
        <path fill-rule="evenodd" clip-rule="evenodd" d="M185.482 322.012L188.326 323.568L185.482 325.118L183.931 327.959L182.374 325.118L179.537 323.568L182.374 322.012L183.931 319.178L185.482 322.012Z" fill="#F5815A"/>
        <path fill-rule="evenodd" clip-rule="evenodd" d="M224.239 34.752L227.083 36.3086L224.239 37.8582L222.689 40.6991L221.131 37.8582L218.294 36.3086L221.131 34.752L222.689 31.9181L224.239 34.752Z" fill="#F5815A"/>
        <path d="M254.773 293.61C254.773 294.913 255.83 295.969 257.134 295.969C258.438 295.969 259.495 294.913 259.495 293.61C259.495 292.307 258.438 291.251 257.134 291.251C255.83 291.251 254.773 292.307 254.773 293.61Z" fill="#F5815A"/>
        <path fill-rule="evenodd" clip-rule="evenodd" d="M128.679 226.408L130.521 227.414L128.679 228.425L127.673 230.264L126.664 228.425L124.821 227.414L126.664 226.408L127.673 224.564L128.679 226.408Z" fill="#F5815A"/>
        <path d="M163.009 165.289C163.009 166.233 163.774 166.999 164.719 166.999C165.663 166.999 166.429 166.233 166.429 165.289C166.429 164.344 165.663 163.579 164.719 163.579C163.774 163.579 163.009 164.344 163.009 165.289Z" fill="#12B0E0"/>
        <path d="M201.766 425.27C201.766 426.573 202.823 427.63 204.127 427.63C205.431 427.63 206.489 426.573 206.489 425.27C206.489 423.967 205.431 422.911 204.127 422.911C202.823 422.911 201.766 423.967 201.766 425.27Z" fill="#12B0E0"/>
    </g>
</svg>
